<svg xmlns="http://www.w3.org/2000/svg" viewBox="0 0 96 96" xml:space="preserve">
<path d="M59.2 7H19c-1.1 0-2 .9-2 2v78c0 1.1.9 2 2 2h58c1.1 0 2-.9 2-2V26.8c0-.5-.2-1-.6-1.4L60.6 7.6c-.4-.4-.9-.6-1.4-.6z" style="fill:#fff;stroke:#979593;stroke-width:2;stroke-miterlimit:10"/><path d="M59 7v18c0 1.1.9 2 2 2h18" style="fill:none;stroke:#979593;stroke-width:2;stroke-miterlimit:10"/>
<g transform="translate(23.20,27.70) scale(3.100)" fill="none">
<path d="M9.15741 4.17108L6.84277 11.8289" stroke="#e34c26" stroke-width="1.2" stroke-linecap="round"/>
<path d="M4.74951 6L2.74951 8L4.74951 10" stroke="#e34c26" stroke-width="1.2" stroke-linecap="round" stroke-linejoin="round"/>
<path d="M11.25 10L13.25 8L11.25 6" stroke="#e34c26" stroke-width="1.2" stroke-linecap="round" stroke-linejoin="round"/>
</g>
</svg>