<svg xmlns="http://www.w3.org/2000/svg" viewBox="0 0 96 96" xml:space="preserve">
<path d="M59.2 7H19c-1.1 0-2 .9-2 2v78c0 1.1.9 2 2 2h58c1.1 0 2-.9 2-2V26.8c0-.5-.2-1-.6-1.4L60.6 7.6c-.4-.4-.9-.6-1.4-.6z" style="fill:#fff;stroke:#979593;stroke-width:2;stroke-miterlimit:10"/><path d="M59 7v18c0 1.1.9 2 2 2h18" style="fill:none;stroke:#979593;stroke-width:2;stroke-miterlimit:10"/>
<g transform="translate(23.20,27.70) scale(3.100)" fill="none">
<path fill="#000" d="M12.5 9.639V6.354H9.683L8.18 5.007V2.5H4.5v3.285h2.817l1.51 1.347v1.736l-1.51 1.347H4.5V13.5h3.681v-2.507l1.51-1.347H12.5v-.007ZM5.727 3.595h1.227V4.69H5.727V3.595Zm1.227 8.803H5.727v-1.095h1.227v1.095Z"/>
</g>
</svg>